<mxfile host="app.diagrams.net" modified="2024-03-03T19:53:15.120Z" agent="Mozilla/5.0 (X11; Ubuntu; Linux x86_64; rv:123.0) Gecko/20100101 Firefox/123.0" version="24.0.0" etag="Ycr-rEvPyssejcbUver6" type="github">
  <diagram name="Seite-1" id="UwIa5ctEVXCjheFTqncy">
    <mxGraphModel>
      <root>
        <mxCell id="0" />
        <mxCell id="1" parent="0" />
      </root>
    </mxGraphModel>
  </diagram>
</mxfile>
